PathFileType	4	(x/y/z)	S08_SL_Cal_T01
DataRate	CameraRate	NumFrames	NumMarkers	Units	OrigDataRate	OrigDataStartFrame	OrigNumFrames
240	240	6	51	mm	240	901	2400
Frame#	Time	Sternum			R.Acromium			L.Acromium			Top.Head			R.ASIS			L.ASIS			R.PSIS			L.PSIS			R.Great.Tro			L.Great.Tro			R.Iliac.Crest			L.Iliac.Crest			V.Sacral			R.Thigh.Upper.Post			R.Thigh.Lower.Ant			R.Thigh.Lower.Post			R.Thigh.Upper.Ant			R.Knee.Lat			R.Knee.Med			R.Shank.Upper.Post			R.Shank.Lower.Ant			R.Shank.Lower.Post			R.Shank.Upper.Ant			R.Ankle.Lat			R.Ankle.Med			R.Heel.Upper			R.Heel.Med			R.Heel.Lat			R.Toe.Lat			R.Toe.Med			R.Toe.Tip			L.Thigh.Upper.Post			L.Thigh.Lower.Ant			L.Thigh.Lower.Post			L.Thigh.Upper.Ant			L.Knee.Lat			L.Knee.Med			L.Shank.Upper.Post			L.Shank.Lower.Ant			L.Shank.Lower.Post			L.Shank.Upper.Ant			L.Ankle.Lat			L.Ankle.Med			L.Heel.Upper			L.Heel.Med			L.Heel.Lat			L.Toe.Lat			L.Toe.Med			L.Toe.Tip			Cervical.Spine			Back			
		X1	Y1	Z1	X2	Y2	Z2	X3	Y3	Z3	X4	Y4	Z4	X5	Y5	Z5	X6	Y6	Z6	X7	Y7	Z7	X8	Y8	Z8	X9	Y9	Z9	X10	Y10	Z10	X11	Y11	Z11	X12	Y12	Z12	X13	Y13	Z13	X14	Y14	Z14	X15	Y15	Z15	X16	Y16	Z16	X17	Y17	Z17	X18	Y18	Z18	X19	Y19	Z19	X20	Y20	Z20	X21	Y21	Z21	X22	Y22	Z22	X23	Y23	Z23	X24	Y24	Z24	X25	Y25	Z25	X26	Y26	Z26	X27	Y27	Z27	X28	Y28	Z28	X29	Y29	Z29	X30	Y30	Z30	X31	Y31	Z31	X32	Y32	Z32	X33	Y33	Z33	X34	Y34	Z34	X35	Y35	Z35	X36	Y36	Z36	X37	Y37	Z37	X38	Y38	Z38	X39	Y39	Z39	X40	Y40	Z40	X41	Y41	Z41	X42	Y42	Z42	X43	Y43	Z43	X44	Y44	Z44	X45	Y45	Z45	X46	Y46	Z46	X47	Y47	Z47	X48	Y48	Z48	X49	Y49	Z49	X50	Y50	Z50	X51	Y51	Z51	

901	3.75	562.44	1246.4	330.97	418.65	1481.9	498.76	414.13	1496	163.72	445.87	1805.6	344.94	534.17	1021.8	434.85	542.01	1026.2	201.55	337.87	1051.5	354.31	344.2	1059.6	261.55	452.17	924.55	501.78	437.88	928.68	135.91	437.58	1091.3	479.28	453.8	1110.1	174.66	321.61	1017.6	304.74	398.96	737.44	514.98	458.5	622.9	499.95	390.81	646.61	509.31	475.74	716.88	508.51	409.28	530.02	499.47	389.17	518.44	373.15	326.9	355.6	525.3	389.81	291.74	518.14	326.99	278.01	525.36	392.12	368.77	518.28	335.33	102.97	509.24	367.97	112.3	434.11	291.29	66.185	464.01	305.54	39.477	438.24	294.89	42.55	499.42	NaN	NaN	NaN	491.58	44.261	440.61	554.09	59.269	490.96	394.83	737.66	121.43	465.47	633.19	125.58	397.94	646.2	123.98	465.33	722.26	115.11	396.52	534.18	129.27	406.08	513.71	253.88	322.31	358.08	110.63	389.37	268.37	111.4	319.33	283.91	117.4	386.23	345	106.8	345.74	105.53	103.02	375.09	102.95	185.69	295.02	76.16	150.44	311.52	42.172	179.48	301.6	48.768	116.58	475.17	38.51	67.419	503.02	44.058	180.58	562.56	59.135	126.94	350.83	1524.8	322.1	328.66	1243.3	334.9
902	3.7542	562.44	1246.4	330.97	418.67	1481.9	498.77	414.12	1496	163.73	445.92	1805.6	344.96	534.18	1021.8	434.86	542.02	1026.2	201.55	337.88	1051.5	354.31	344.21	1059.6	261.55	452.17	924.55	501.78	437.89	928.68	135.91	437.59	1091.3	479.28	453.81	1110.1	174.66	321.62	1017.6	304.74	398.95	737.45	514.98	458.49	622.9	499.95	390.8	646.61	509.31	475.73	716.88	508.51	409.27	530.02	499.47	389.17	518.44	373.15	326.89	355.61	525.29	389.81	291.74	518.14	326.98	278.01	525.36	392.11	368.77	518.28	335.33	102.98	509.24	367.97	112.3	434.11	291.29	66.186	464	305.54	39.477	438.24	294.9	42.553	499.42	NaN	NaN	NaN	491.58	44.26	440.61	554.09	59.255	490.96	394.84	737.66	121.44	465.47	633.19	125.58	397.94	646.21	123.98	465.34	722.26	115.11	396.52	534.18	129.27	406.08	513.71	253.88	322.31	358.08	110.63	389.37	268.37	111.4	319.33	283.91	117.4	386.23	345	106.8	345.74	105.53	103.02	375.09	102.95	185.69	295.03	76.165	150.44	311.51	42.169	179.48	301.6	48.769	116.58	475.17	38.509	67.419	503.02	44.058	180.59	562.56	59.133	126.94	350.85	1524.8	322.11	328.67	1243.3	334.91
903	3.7583	562.45	1246.4	330.96	418.69	1481.9	498.78	414.13	1496.1	163.74	445.97	1805.6	344.98	534.19	1021.8	434.86	542.03	1026.2	201.55	337.9	1051.5	354.31	344.22	1059.6	261.54	452.18	924.56	501.78	437.9	928.68	135.91	437.59	1091.3	479.28	453.81	1110.1	174.65	321.63	1017.6	304.73	398.95	737.45	514.98	458.48	622.9	499.96	390.79	646.61	509.31	475.73	716.88	508.52	409.26	530.02	499.47	389.17	518.45	373.14	326.89	355.61	525.28	389.8	291.74	518.14	326.98	278.01	525.35	392.1	368.78	518.28	335.34	102.98	509.24	367.98	112.3	434.11	291.29	66.188	464	305.54	39.478	438.24	294.9	42.555	499.42	NaN	NaN	NaN	491.58	44.26	440.61	554.1	59.242	490.97	394.84	737.66	121.44	465.47	633.19	125.58	397.94	646.21	123.98	465.34	722.26	115.11	396.52	534.18	129.27	406.08	513.71	253.88	322.31	358.08	110.63	389.37	268.38	111.4	319.33	283.91	117.4	386.23	345	106.8	345.74	105.53	103.02	375.09	102.95	185.69	295.03	76.17	150.44	311.5	42.167	179.48	301.6	48.77	116.58	475.17	38.508	67.419	503.02	44.057	180.59	562.56	59.131	126.94	350.86	1524.8	322.12	328.68	1243.3	334.91
904	3.7625	562.46	1246.4	330.96	418.71	1481.9	498.79	414.13	1496.1	163.75	446.02	1805.6	345	534.2	1021.8	434.86	542.04	1026.2	201.55	337.91	1051.5	354.31	344.23	1059.6	261.54	452.18	924.56	501.78	437.9	928.68	135.91	437.6	1091.3	479.28	453.82	1110.1	174.65	321.64	1017.6	304.73	398.94	737.45	514.98	458.47	622.9	499.96	390.79	646.61	509.31	475.72	716.88	508.52	409.25	530.03	499.47	389.16	518.45	373.14	326.88	355.61	525.27	389.79	291.75	518.14	326.97	278.01	525.35	392.09	368.78	518.28	335.34	102.98	509.24	367.98	112.3	434.12	291.29	66.189	464	305.55	39.48	438.24	294.9	42.558	499.42	NaN	NaN	NaN	491.58	44.26	440.61	554.11	59.229	490.98	394.84	737.66	121.44	465.47	633.19	125.58	397.94	646.21	123.98	465.34	722.26	115.11	396.52	534.18	129.27	406.08	513.71	253.88	322.31	358.08	110.63	389.37	268.38	111.4	319.34	283.91	117.39	386.23	345.01	106.8	345.74	105.53	103.03	375.09	102.95	185.69	295.03	76.174	150.44	311.49	42.165	179.49	301.61	48.771	116.58	475.17	38.506	67.419	503.02	44.056	180.59	562.56	59.128	126.94	350.87	1524.8	322.14	328.69	1243.3	334.92
905	3.7667	562.46	1246.4	330.96	418.73	1481.9	498.8	414.13	1496.1	163.76	446.07	1805.6	345.02	534.21	1021.8	434.86	542.05	1026.2	201.55	337.92	1051.5	354.31	344.24	1059.6	261.54	452.19	924.56	501.78	437.91	928.69	135.91	437.6	1091.3	479.28	453.83	1110.1	174.64	321.65	1017.6	304.73	398.94	737.45	514.98	458.47	622.9	499.96	390.78	646.62	509.3	475.72	716.88	508.52	409.24	530.03	499.47	389.16	518.45	373.14	326.88	355.62	525.26	389.79	291.75	518.15	326.96	278.02	525.35	392.08	368.78	518.28	335.34	102.98	509.24	367.98	112.3	434.12	291.29	66.19	463.99	305.55	39.481	438.24	294.9	42.56	499.42	NaN	NaN	NaN	491.59	44.26	440.61	554.12	59.216	490.98	394.84	737.66	121.44	465.47	633.2	125.57	397.94	646.21	123.98	465.34	722.26	115.11	396.52	534.19	129.27	406.07	513.72	253.88	322.31	358.08	110.63	389.37	268.38	111.4	319.34	283.91	117.39	386.23	345.01	106.8	345.74	105.53	103.03	375.09	102.95	185.68	295.04	76.178	150.44	311.48	42.164	179.49	301.61	48.772	116.58	475.17	38.505	67.419	503.02	44.055	180.59	562.56	59.126	126.94	350.89	1524.8	322.15	328.7	1243.3	334.93
906	3.7708	562.47	1246.4	330.95	418.75	1481.8	498.8	414.13	1496.1	163.77	446.11	1805.6	345.04	534.22	1021.8	434.86	542.06	1026.2	201.55	337.93	1051.5	354.31	344.25	1059.6	261.53	452.19	924.57	501.78	437.92	928.69	135.91	437.61	1091.3	479.28	453.83	1110.1	174.64	321.66	1017.6	304.73	398.93	737.46	514.98	458.46	622.9	499.96	390.77	646.62	509.3	475.71	716.88	508.52	409.23	530.03	499.47	389.15	518.45	373.14	326.87	355.62	525.25	389.78	291.75	518.15	326.95	278.02	525.34	392.07	368.79	518.29	335.34	102.98	509.24	367.99	112.3	434.12	291.29	66.19	463.99	305.55	39.483	438.23	294.9	42.562	499.42	NaN	NaN	NaN	491.59	44.26	440.61	554.12	59.203	490.99	394.85	737.67	121.44	465.47	633.2	125.57	397.94	646.22	123.98	465.35	722.26	115.11	396.52	534.19	129.27	406.07	513.72	253.88	322.31	358.09	110.63	389.37	268.38	111.39	319.34	283.92	117.39	386.23	345.01	106.8	345.74	105.53	103.03	375.09	102.96	185.68	295.04	76.181	150.44	311.47	42.162	179.49	301.61	48.773	116.58	475.17	38.503	67.418	503.03	44.055	180.59	562.57	59.123	126.94	350.9	1524.8	322.16	328.71	1243.3	334.93
